<svg xmlns="http://www.w3.org/2000/svg" viewBox="0 0 200 60" width="200" height="60">
  <defs>
    <linearGradient id="logoGradient" x1="0%" y1="0%" x2="100%" y2="100%">
      <stop offset="0%" style="stop-color:#c8a962"/>
      <stop offset="100%" style="stop-color:#a68b4b"/>
    </linearGradient>
  </defs>
  <g transform="translate(10, 5)">
    <path d="M25 25 Q15 15 5 25 Q15 35 25 25" fill="url(#logoGradient)"/>
    <path d="M25 15 L35 25 L25 35 L15 25 Z" fill="url(#logoGradient)"/>
    <path d="M35 25 Q45 15 55 25 Q45 35 35 25" fill="url(#logoGradient)"/>
    <line x1="0" y1="20" x2="5" y2="20" stroke="url(#logoGradient)" stroke-width="2" stroke-linecap="round"/>
    <line x1="0" y1="25" x2="8" y2="25" stroke="url(#logoGradient)" stroke-width="2" stroke-linecap="round"/>
    <line x1="0" y1="30" x2="5" y2="30" stroke="url(#logoGradient)" stroke-width="2" stroke-linecap="round"/>
    <line x1="55" y1="20" x2="60" y2="20" stroke="url(#logoGradient)" stroke-width="2" stroke-linecap="round"/>
    <line x1="52" y1="25" x2="60" y2="25" stroke="url(#logoGradient)" stroke-width="2" stroke-linecap="round"/>
    <line x1="55" y1="30" x2="60" y2="30" stroke="url(#logoGradient)" stroke-width="2" stroke-linecap="round"/>
  </g>
  <text x="75" y="28" font-family="'Helvetica Neue', Arial, sans-serif" font-size="14" font-weight="700" fill="#ffffff" letter-spacing="0.1em">YUDATENG</text>
  <text x="75" y="42" font-family="'Helvetica Neue', Arial, sans-serif" font-size="8" font-weight="400" fill="#c8a962" letter-spacing="0.2em">SPORTS DEVELOPMENT</text>
</svg>
